<svg width="100%" height="100%" viewBox="0 0 120 120" fill="none" xmlns="http://www.w3.org/2000/svg">
<g clip-path="url(#clip0_95_546)">
<path d="M91.875 0H28.125C12.592 0 0 12.592 0 28.125V91.875C0 107.408 12.592 120 28.125 120H91.875C107.408 120 120 107.408 120 91.875V28.125C120 12.592 107.408 0 91.875 0Z" fill="#0277BD"/>
<path d="M25.1963 48.1172L26.5382 63.09H60.0447V48.1172H25.1963Z" fill="#EBEBEB"/>
<path d="M60.0445 17.8125H59.993H22.5L23.8611 32.7855H60.0445V17.8125Z" fill="#EBEBEB"/>
<path d="M60.0441 102.581V87.003L59.9785 87.0204L43.3033 82.518L42.2374 70.5762H34.1345H27.207L29.3047 94.0859L59.9752 102.6L60.0441 102.581Z" fill="#EBEBEB"/>
<path d="M78.4305 63.0905L76.6924 82.5089L59.9932 87.0164V102.593L90.6883 94.0866L90.9133 91.5567L94.4318 52.1386L94.7969 48.1177L97.5002 17.8125H59.9932V32.7855H81.0911L79.7289 48.1177H59.9932V63.0905H78.4305Z" fill="white"/>
</g>
<defs>
<clipPath id="clip0_95_546">
<rect width="120" height="120" fill="white"/>
</clipPath>
</defs>
</svg>
