<svg width="100%" height="100%" viewBox="0 0 120 120" fill="none" xmlns="http://www.w3.org/2000/svg">
<g clip-path="url(#clip0_95_628)">
<path d="M91.875 0H28.125C12.592 0 0 12.592 0 28.125V91.875C0 107.408 12.592 120 28.125 120H91.875C107.408 120 120 107.408 120 91.875V28.125C120 12.592 107.408 0 91.875 0Z" fill="#242938"/>
<path d="M60.0005 14.0625C34.1152 14.0625 13.125 35.0488 13.125 60.938C13.125 81.6488 26.5562 99.2194 45.1813 105.418C47.5238 105.852 48.3839 104.401 48.3839 103.163C48.3839 102.045 48.3403 98.3527 48.3202 94.4358C35.2796 97.2712 32.5278 88.905 32.5278 88.905C30.3955 83.4867 27.3232 82.0462 27.3232 82.0462C23.0701 79.1367 27.6437 79.1967 27.6437 79.1967C32.3508 79.5272 34.8293 84.0272 34.8293 84.0272C39.0102 91.1934 45.7952 89.1216 48.4702 87.9239C48.8911 84.8939 50.1056 82.8263 51.4463 81.6558C41.0346 80.4703 30.0897 76.4508 30.0897 58.4897C30.0897 53.3719 31.9208 49.1902 34.9194 45.9076C34.4327 44.727 32.8282 39.9593 35.3735 33.5026C35.3735 33.5026 39.3098 32.2427 48.2677 38.3075C52.0069 37.2689 56.0166 36.748 60.0005 36.7302C63.9839 36.748 67.9973 37.2689 71.7431 38.3075C80.6902 32.2427 84.6211 33.5026 84.6211 33.5026C87.1725 39.9593 85.5675 44.727 85.0805 45.9076C88.0861 49.1902 89.9048 53.3719 89.9048 58.4897C89.9048 76.4939 78.9389 80.4581 68.5008 81.6183C70.1822 83.0733 71.6803 85.9256 71.6803 90.2991C71.6803 96.5709 71.6259 101.619 71.6259 103.163C71.6259 104.41 72.4697 105.872 74.8458 105.412C93.4608 99.2063 106.875 81.6417 106.875 60.938C106.875 35.0488 85.8877 14.0625 60.0005 14.0625ZM30.6814 80.8373C30.5781 81.0703 30.2117 81.1402 29.8779 80.9803C29.538 80.8275 29.347 80.5097 29.4572 80.2762C29.5582 80.0362 29.9253 79.9697 30.2645 80.1305C30.6053 80.2833 30.7994 80.6039 30.6814 80.8373ZM32.9871 82.8947C32.7636 83.1023 32.3265 83.0058 32.03 82.6781C31.7234 82.3514 31.6659 81.9145 31.8926 81.7041C32.1232 81.4969 32.547 81.5939 32.8544 81.9206C33.161 82.2516 33.2207 82.6852 32.9871 82.8947ZM34.569 85.5272C34.2817 85.7269 33.8121 85.5398 33.5218 85.1227C33.2346 84.7059 33.2346 84.2063 33.528 84.0056C33.8191 83.8055 34.2817 83.9855 34.5759 84.3994C34.8623 84.8231 34.8623 85.3233 34.569 85.5272ZM37.2442 88.5759C36.9872 88.8591 36.44 88.7831 36.0394 88.3964C35.6296 88.0186 35.5155 87.4823 35.7732 87.1988C36.0332 86.9147 36.5836 86.9948 36.9872 87.3783C37.394 87.7552 37.5181 88.2956 37.2442 88.5759ZM40.7016 89.6048C40.5883 89.9723 40.0612 90.1392 39.5303 89.9831C39.0001 89.8223 38.6531 89.3925 38.7602 89.0212C38.8705 88.6519 39.3998 88.478 39.9347 88.6448C40.4641 88.8047 40.8118 89.2317 40.7016 89.6048ZM44.6363 90.0417C44.6495 90.428 44.1993 90.7486 43.642 90.7556C43.0815 90.7683 42.6282 90.4552 42.622 90.075C42.622 89.6845 43.0621 89.3672 43.6226 89.3578C44.1799 89.347 44.6363 89.6573 44.6363 90.0417ZM48.5016 89.8936C48.5686 90.2705 48.1814 90.6581 47.6278 90.7612C47.0836 90.8606 46.5798 90.6277 46.5107 90.2536C46.4432 89.8669 46.8375 89.4797 47.3808 89.3794C47.9353 89.2833 48.4313 89.5102 48.5016 89.8936Z" fill="white"/>
</g>
<defs>
<clipPath id="clip0_95_628">
<rect width="120" height="120" fill="white"/>
</clipPath>
</defs>
</svg>
