<svg width="100%" height="100%" viewBox="0 0 120 120" fill="none" xmlns="http://www.w3.org/2000/svg">
<g clip-path="url(#clip0_95_590)">
<path d="M91.875 0H28.125C12.592 0 0 12.592 0 28.125V91.875C0 107.408 12.592 120 28.125 120H91.875C107.408 120 120 107.408 120 91.875V28.125C120 12.592 107.408 0 91.875 0Z" fill="#CD6799"/>
<mask id="mask0_95_590" style="mask-type:luminance" maskUnits="userSpaceOnUse" x="13" y="24" width="94" height="72">
<path d="M106.875 24.8438H13.125V95.1136H106.875V24.8438Z" fill="white"/>
</mask>
<g mask="url(#mask0_95_590)">
<path d="M93.7997 65.2333C90.5307 65.2502 87.6901 66.0377 85.3111 67.2011C84.4383 65.4728 83.5655 63.9325 83.4113 62.8028C83.2402 61.4852 83.0349 60.6808 83.2402 59.1063C83.4455 57.5317 84.3699 55.2902 84.3526 55.1191C84.3357 54.9475 84.1472 54.1436 82.2647 54.1263C80.3822 54.1094 78.7566 54.4858 78.5682 54.9822C78.3797 55.4781 78.0207 56.6078 77.7812 57.7717C77.4558 59.4831 74.0157 65.5928 72.0479 68.793C71.4146 67.5438 70.8671 66.4483 70.7471 65.5755C70.576 64.2578 70.3707 63.4534 70.576 61.8789C70.7813 60.3044 71.7057 58.0624 71.6883 57.8913C71.6715 57.7202 71.483 56.9158 69.6005 56.8989C67.718 56.8816 66.0919 57.258 65.904 57.7544C65.7155 58.2508 65.5102 59.4147 65.1165 60.5439C64.7232 61.6736 60.1538 71.8736 58.9557 74.5089C58.3397 75.8608 57.8091 76.9389 57.4327 77.6749C57.4327 77.6749 57.4154 77.7264 57.3643 77.8117C57.039 78.445 56.8505 78.7872 56.8505 78.7872C56.8505 78.7872 56.8505 78.7872 56.8505 78.8045C56.5941 79.2667 56.3199 79.6942 56.183 79.6942C56.0804 79.6942 55.8924 78.4624 56.2172 76.7852C56.9021 73.2424 58.5277 67.7317 58.5108 67.5438C58.5108 67.4411 58.8188 66.4825 57.4496 65.9861C56.1146 65.4897 55.6355 66.3114 55.5155 66.3114C55.396 66.3114 55.3102 66.6025 55.3102 66.6025C55.3102 66.6025 56.7994 60.407 52.4696 60.407C49.7654 60.407 46.0346 63.3677 44.1863 66.0377C43.0226 66.6709 40.5411 68.0228 37.8884 69.4773C36.8787 70.0422 35.8348 70.607 34.8593 71.1377C34.7908 71.0692 34.7224 70.9834 34.6539 70.915C29.4171 65.3186 19.7306 61.3656 20.1413 53.8525C20.2953 51.1141 21.2366 43.9264 38.7441 35.1983C53.154 28.096 64.6205 30.0641 66.6057 34.4282C69.4463 40.6576 60.4618 52.2264 45.5726 53.9036C39.8908 54.5369 36.9129 52.3464 36.1599 51.5252C35.3727 50.6692 35.2529 50.6181 34.962 50.7892C34.4828 51.0456 34.7908 51.8158 34.962 52.2606C35.4069 53.4245 37.2381 55.4781 40.3357 56.4878C43.074 57.378 49.7311 57.8744 57.7918 54.7595C66.811 51.2683 73.8619 41.5646 71.791 33.4355C69.7205 25.1867 56.0293 22.4655 43.074 27.0692C35.3727 29.8074 27.0211 34.1201 21.0141 39.7335C13.8776 46.4079 12.7481 52.2095 13.2102 54.6395C14.8702 63.265 26.7644 68.8783 31.522 73.037C31.2825 73.1739 31.06 73.2939 30.8717 73.3966C28.4929 74.5774 19.4225 79.3178 17.1635 84.3325C14.5964 90.0142 17.5742 94.0872 19.5423 94.6347C25.652 96.3292 31.9328 93.2828 35.3042 88.2513C38.6757 83.2197 38.265 76.6825 36.7076 73.6877C36.6905 73.6534 36.6734 73.6192 36.6391 73.585C37.2552 73.2255 37.8884 72.8491 38.5045 72.4895C39.7196 71.7709 40.9176 71.1034 41.9444 70.5555C41.3626 72.1474 40.9347 74.0467 40.7293 76.7852C40.4726 80.0027 41.7904 84.1783 43.5189 85.8213C44.2891 86.5399 45.1961 86.5572 45.7779 86.5572C47.7976 86.5572 48.7046 84.88 49.7143 82.8949C50.9461 80.4644 52.059 77.6406 52.059 77.6406C52.059 77.6406 50.6724 85.2738 54.4374 85.2738C55.8066 85.2738 57.1927 83.4939 57.8091 82.5869C57.8091 82.6038 57.8091 82.6038 57.8091 82.6038C57.8091 82.6038 57.8433 82.5527 57.9118 82.4327C58.0486 82.21 58.134 82.0731 58.134 82.0731C58.134 82.0731 58.134 82.0563 58.134 82.0389C58.6819 81.0808 59.9138 78.9072 61.7452 75.2959C64.1068 70.6413 66.383 64.8227 66.383 64.8227C66.383 64.8227 66.5883 66.243 67.2901 68.6045C67.7007 69.9911 68.5566 71.5141 69.241 72.9859C68.6935 73.7561 68.3513 74.1836 68.3513 74.1836C68.3513 74.1836 68.3513 74.1836 68.3682 74.2009C67.9233 74.7827 67.4443 75.4159 66.9136 76.0319C65.048 78.257 62.8233 80.807 62.5154 81.543C62.1558 82.4158 62.2416 83.0486 62.926 83.5624C63.4224 83.9388 64.3121 83.9898 65.2191 83.9388C66.8963 83.8188 68.0776 83.4081 68.6593 83.1513C69.5663 82.8264 70.6275 82.33 71.6199 81.5941C73.4513 80.2422 74.5636 78.3081 74.461 75.7581C74.4094 74.3547 73.9472 72.9517 73.3829 71.6336C73.554 71.3941 73.7077 71.1545 73.8788 70.915C76.7715 66.6878 79.013 62.05 79.013 62.05C79.013 62.05 79.2183 63.4703 79.9201 65.8323C80.2622 67.03 80.964 68.3308 81.5804 69.5974C78.8593 71.8052 77.1821 74.372 76.583 76.0492C75.5049 79.1641 76.3435 80.567 77.9349 80.8923C78.654 81.0466 79.6805 80.7044 80.4338 80.3791C81.3919 80.0711 82.5216 79.5405 83.5997 78.753C85.4307 77.4011 87.1936 75.5186 87.091 72.9686C87.0394 71.8052 86.7315 70.6581 86.3035 69.5458C88.614 68.5877 91.5919 68.057 95.3912 68.5019C103.538 69.4605 105.146 74.5431 104.838 76.6825C104.53 78.8214 102.818 79.9853 102.254 80.3449C101.689 80.7044 101.501 80.8239 101.552 81.0808C101.621 81.4572 101.895 81.4399 102.374 81.3714C103.041 81.2519 106.652 79.6431 106.806 75.707C107.063 70.6755 102.271 65.1817 93.7997 65.2333ZM30.9573 86.4203C28.2533 89.3636 24.4883 90.4764 22.8624 89.5352C21.1168 88.525 21.8014 84.1783 25.1214 81.0634C27.1409 79.1641 29.7422 77.4011 31.4707 76.323C31.8643 76.0834 32.4462 75.7413 33.1479 75.3133C33.2677 75.2449 33.3361 75.2106 33.3361 75.2106C33.473 75.1249 33.6099 75.0395 33.7469 74.9538C34.962 79.4036 33.7982 83.3228 30.9573 86.4203ZM50.6382 73.037C49.6969 75.3306 47.7291 81.2003 46.5309 80.8755C45.5041 80.6013 44.8709 76.1519 46.3256 71.7536C47.0616 69.5458 48.6188 66.9105 49.5258 65.8834C50.9977 64.2405 52.6233 63.693 53.0171 64.3605C53.5135 65.2333 51.2204 71.5994 50.6382 73.037ZM66.8794 80.807C66.4857 81.0123 66.1093 81.1492 65.9382 81.0466C65.8182 80.9781 66.1093 80.7044 66.1093 80.7044C66.1093 80.7044 68.146 78.5134 68.9504 77.5211C69.4121 76.9389 69.9601 76.2545 70.5418 75.4844C70.5418 75.5528 70.5418 75.6386 70.5418 75.707C70.5418 78.3255 68.0091 80.088 66.8794 80.807ZM79.4068 77.9486C79.1157 77.7433 79.1672 77.0589 80.1427 74.9195C80.5191 74.0809 81.4093 72.678 82.9322 71.3256C83.1033 71.8736 83.2233 72.4038 83.206 72.9002C83.1891 76.2034 80.8271 77.4353 79.4068 77.9486Z" fill="white"/>
</g>
</g>
<defs>
<clipPath id="clip0_95_590">
<rect width="120" height="120" fill="white"/>
</clipPath>
</defs>
</svg>
