<svg width="35" height="35" viewBox="0 0 35 35" fill="none" xmlns="http://www.w3.org/2000/svg">
<path fill-rule="evenodd" clip-rule="evenodd" d="M4.06066 1.93934C3.47487 1.35355 2.52513 1.35355 1.93934 1.93934C1.35355 2.52513 1.35355 3.47487 1.93934 4.06066L15.3787 17.5L1.93934 30.9393C1.35355 31.5251 1.35355 32.4749 1.93934 33.0607C2.52513 33.6464 3.47487 33.6464 4.06066 33.0607L17.5 19.6213L30.9393 33.0607C31.5251 33.6464 32.4749 33.6464 33.0607 33.0607C33.6464 32.4749 33.6464 31.5251 33.0607 30.9393L19.6213 17.5L33.0607 4.06066C33.6464 3.47488 33.6464 2.52513 33.0607 1.93934C32.4749 1.35356 31.5251 1.35356 30.9393 1.93934L17.5 15.3787L4.06066 1.93934Z" fill="white"/>
</svg>
