<svg width="100%" height="100%" viewBox="0 0 120 120" fill="none" xmlns="http://www.w3.org/2000/svg">
<g clip-path="url(#clip0_95_638)">
<path d="M91.875 0H28.125C12.592 0 0 12.592 0 28.125V91.875C0 107.408 12.592 120 28.125 120H91.875C107.408 120 120 107.408 120 91.875V28.125C120 12.592 107.408 0 91.875 0Z" fill="#242938"/>
<mask id="mask0_95_638" style="mask-type:luminance" maskUnits="userSpaceOnUse" x="28" y="13" width="64" height="94">
<path d="M91.1063 13.125H28.5938V106.875H91.1063V13.125Z" fill="white"/>
</mask>
<g mask="url(#mask0_95_638)">
<path d="M44.2246 106.875C52.8498 106.875 59.8496 99.8753 59.8496 91.2503V75.625H44.2246C35.5996 75.625 28.5996 82.6253 28.5996 91.2503C28.5996 99.8753 35.5996 106.875 44.2246 106.875Z" fill="#0ACF83"/>
<path d="M28.5996 60C28.5996 51.375 35.5996 44.375 44.2246 44.375H59.8496V75.6248H44.2246C35.5996 75.6248 28.5996 68.625 28.5996 60Z" fill="#A259FF"/>
<path d="M28.5996 28.75C28.5996 20.125 35.5996 13.125 44.2246 13.125H59.8496V44.375H44.2246C35.5996 44.375 28.5996 37.375 28.5996 28.75Z" fill="#F24E1E"/>
<path d="M59.8496 13.125H75.4745C84.0995 13.125 91.0998 20.125 91.0998 28.75C91.0998 37.375 84.0995 44.375 75.4745 44.375H59.8496V13.125Z" fill="#FF7262"/>
<path d="M91.0998 60C91.0998 68.625 84.0995 75.6248 75.4745 75.6248C66.8495 75.6248 59.8496 68.625 59.8496 60C59.8496 51.375 66.8495 44.375 75.4745 44.375C84.0995 44.375 91.0998 51.375 91.0998 60Z" fill="#1ABCFE"/>
</g>
</g>
<defs>
<clipPath id="clip0_95_638">
<rect width="120" height="120" fill="white"/>
</clipPath>
</defs>
</svg>
