<svg width="100%" height="100%" viewBox="0 0 120 120" fill="none" xmlns="http://www.w3.org/2000/svg">
<g clip-path="url(#clip0_95_619)">
<path d="M91.875 0H28.125C12.592 0 0 12.592 0 28.125V91.875C0 107.408 12.592 120 28.125 120H91.875C107.408 120 120 107.408 120 91.875V28.125C120 12.592 107.408 0 91.875 0Z" fill="#F03C2E"/>
<mask id="mask0_95_619" style="mask-type:luminance" maskUnits="userSpaceOnUse" x="13" y="13" width="94" height="94">
<path d="M106.875 13.125H13.125V106.875H106.875V13.125Z" fill="white"/>
</mask>
<g mask="url(#mask0_95_619)">
<path d="M105.105 55.8245L64.1743 14.8937C63.6142 14.333 62.9486 13.8882 62.2164 13.5847C61.4837 13.2812 60.6986 13.125 59.9059 13.125C59.1133 13.125 58.3281 13.2812 57.5954 13.5847C56.8633 13.8882 56.1976 14.333 55.6375 14.8937L47.1414 23.3898L57.9226 34.1711C60.4304 33.2922 63.3015 33.8927 65.2993 35.8908C66.2504 36.8436 66.9147 38.0447 67.2156 39.357C67.5165 40.6692 67.4425 42.0396 67.0014 43.3117L77.3931 53.7034C79.907 52.8362 82.8072 53.3955 84.8139 55.4083C85.4814 56.0758 86.0106 56.868 86.3715 57.7398C86.7325 58.6117 86.9181 59.5459 86.9181 60.4895C86.9176 61.4331 86.732 62.3673 86.3706 63.2392C86.0092 64.1106 85.48 64.9028 84.8125 65.5698C84.1454 66.2373 83.3532 66.7661 82.4814 67.127C81.6095 67.4884 80.6753 67.674 79.7317 67.6736C78.7881 67.6736 77.8534 67.4875 76.982 67.1265C76.1101 66.7651 75.3179 66.2359 74.6509 65.5684C72.5415 63.459 72.0203 60.3536 73.0867 57.7548L63.3953 48.0634V73.5667C64.0989 73.9145 64.7415 74.3739 65.2993 74.9261C65.9664 75.5931 66.4956 76.3848 66.857 77.2567C67.2179 78.1281 67.4036 79.0623 67.4036 80.0059C67.4036 80.9495 67.2179 81.8837 66.857 82.7551C66.4956 83.627 65.9664 84.4192 65.2993 85.0862C64.6323 85.7533 63.8401 86.2825 62.9687 86.6434C62.0968 87.0044 61.1626 87.1905 60.2195 87.1905C59.2759 87.1905 58.3417 87.0044 57.4703 86.6434C56.5984 86.2825 55.8062 85.7533 55.1392 85.0862C54.4712 84.4192 53.9415 83.6275 53.5801 82.7561C53.2183 81.8842 53.0322 80.9495 53.0322 80.0059C53.0322 79.0623 53.2183 78.1281 53.5801 77.2562C53.9415 76.3844 54.4712 75.5926 55.1392 74.9261C55.8334 74.2347 56.604 73.7101 57.4918 73.3586V47.6181C56.6364 47.2665 55.8334 46.7482 55.1392 46.0509C54.1304 45.0434 53.4447 43.7582 53.169 42.3594C52.8939 40.9605 53.0411 39.5113 53.5923 38.1965L42.9576 27.5676L14.8912 55.6047C14.3301 56.1653 13.8849 56.8309 13.5812 57.5636C13.2774 58.2962 13.1211 59.0814 13.1211 59.8745C13.1211 60.6676 13.2774 61.4533 13.5812 62.1859C13.8849 62.9186 14.3301 63.5842 14.8912 64.1448L55.825 105.072C56.3851 105.633 57.0508 106.078 57.7829 106.382C58.5156 106.685 59.3007 106.841 60.0934 106.841C60.8861 106.841 61.6712 106.685 62.4039 106.382C63.1361 106.078 63.8017 105.633 64.3618 105.072L105.105 64.3937C105.666 63.8331 106.112 63.1675 106.415 62.4348C106.719 61.7022 106.875 60.917 106.875 60.1239C106.875 59.3308 106.719 58.5451 106.415 57.8125C106.112 57.0798 105.666 56.4142 105.105 55.8536" fill="white"/>
</g>
</g>
<defs>
<clipPath id="clip0_95_619">
<rect width="120" height="120" fill="white"/>
</clipPath>
</defs>
</svg>
