<svg width="100%" height="100%" viewBox="0 0 120 120" fill="none" xmlns="http://www.w3.org/2000/svg">
<g clip-path="url(#clip0_95_539)">
<path d="M91.875 0H28.125C12.592 0 0 12.592 0 28.125V91.875C0 107.408 12.592 120 28.125 120H91.875C107.408 120 120 107.408 120 91.875V28.125C120 12.592 107.408 0 91.875 0Z" fill="#E14E1D"/>
<path d="M22.5 17.8125L26.5358 63.0905H78.4313L76.6898 82.5108L59.9808 87.0286L43.3031 82.5173L42.1881 70.0477H27.1589L29.3079 94.0856L59.977 102.604L90.6848 94.0856L94.8019 48.1195H40.23L38.8598 32.7866H96.113H96.1589L97.5 17.8125H22.5Z" fill="white"/>
<path d="M60 17.8125H22.5L26.5358 63.0905H60V48.1195H40.23L38.8598 32.7866H60V17.8125Z" fill="#EBEBEB"/>
<path d="M60.0004 87.0213L59.9811 87.0278L43.3035 82.5166L42.1884 70.0469H27.1592L29.3083 94.0848L59.9774 102.603L60.0004 102.596V87.0213Z" fill="#EBEBEB"/>
</g>
<defs>
<clipPath id="clip0_95_539">
<rect width="120" height="120" fill="white"/>
</clipPath>
</defs>
</svg>
