<svg width="100%" height="100%" viewBox="0 0 120 120" fill="none" xmlns="http://www.w3.org/2000/svg">
<g clip-path="url(#clip0_95_554)">
<path d="M91.875 0H28.125C12.592 0 0 12.592 0 28.125V91.875C0 107.408 12.592 120 28.125 120H91.875C107.408 120 120 107.408 120 91.875V28.125C120 12.592 107.408 0 91.875 0Z" fill="#F0DB4F"/>
<path d="M31.5519 100.281L40.7352 94.7232C42.5068 97.8643 44.1184 100.522 47.9841 100.522C51.6896 100.522 54.0258 99.0727 54.0258 93.4346V55.0918H65.303V93.594C65.303 105.274 58.4565 110.59 48.4674 110.59C39.4464 110.59 34.2099 105.918 31.5518 100.28" fill="#323330"/>
<path d="M71.4287 99.0727L80.6106 93.7566C83.0279 97.704 86.1695 100.604 91.727 100.604C96.4 100.604 99.3793 98.2674 99.3793 95.0452C99.3793 91.179 96.3184 89.8093 91.1631 87.5546L88.3445 86.3457C80.2084 82.8826 74.8112 78.5326 74.8112 69.3498C74.8112 60.8916 81.2556 54.4473 91.3248 54.4473C98.4939 54.4473 103.649 56.9448 107.354 63.4693L98.574 69.1079C96.6404 65.6443 94.547 64.2751 91.3248 64.2751C88.022 64.2751 85.9276 66.3695 85.9276 69.1079C85.9276 72.4909 88.022 73.8605 92.8548 75.9554L95.6739 77.1634C105.259 81.272 110.657 85.4598 110.657 94.884C110.657 105.034 102.682 110.592 91.9689 110.592C81.4975 110.592 74.7311 105.598 71.4287 99.0727Z" fill="#323330"/>
</g>
<defs>
<clipPath id="clip0_95_554">
<rect width="120" height="120" fill="white"/>
</clipPath>
</defs>
</svg>
