<svg width="100%" height="100%" viewBox="0 0 120 120" fill="none" xmlns="http://www.w3.org/2000/svg">
<g clip-path="url(#clip0_95_571)">
<path d="M91.875 0H28.125C12.592 0 0 12.592 0 28.125V91.875C0 107.408 12.592 120 28.125 120H91.875C107.408 120 120 107.408 120 91.875V28.125C120 12.592 107.408 0 91.875 0Z" fill="#242938"/>
<path d="M60.0009 68.8826C64.8309 68.8826 68.7459 64.9671 68.7459 60.1376C68.7459 55.308 64.8309 51.3926 60.0009 51.3926C55.1713 51.3926 51.2559 55.308 51.2559 60.1376C51.2559 64.9671 55.1713 68.8826 60.0009 68.8826Z" fill="#00D8FF"/>
<path fill-rule="evenodd" clip-rule="evenodd" d="M60.0009 42.3574C71.7422 42.3574 82.6495 44.0422 90.8737 46.8735C100.783 50.2848 106.875 55.4556 106.875 60.1379C106.875 65.0171 100.418 70.5104 89.7773 74.0359C81.7327 76.7012 71.1464 78.0924 60.0009 78.0924C48.5737 78.0924 37.7526 76.7865 29.6172 74.0063C19.3245 70.4884 13.125 64.9243 13.125 60.1379C13.125 55.4935 18.942 50.3626 28.7116 46.9567C36.9664 44.0787 48.143 42.3574 59.9991 42.3574H60.0009Z" stroke="#00D8FF" stroke-width="8.911"/>
<path fill-rule="evenodd" clip-rule="evenodd" d="M44.5222 51.2991C50.3881 41.1282 57.2961 32.5211 63.8576 26.8111C71.7626 19.9315 79.2861 17.2373 83.3417 19.5761C87.5684 22.0136 89.1017 30.3514 86.84 41.3303C85.1314 49.6308 81.0467 59.4961 75.4784 69.1514C69.7695 79.0505 63.2328 87.772 56.7608 93.4289C48.5712 100.588 40.6538 103.178 36.5076 100.787C32.4843 98.4689 30.9458 90.8653 32.8759 80.7005C34.5066 72.1116 38.5991 61.5698 44.5203 51.2991H44.5222Z" stroke="#00D8FF" stroke-width="8.911"/>
<path fill-rule="evenodd" clip-rule="evenodd" d="M44.5368 69.178C38.6544 59.0183 34.6495 48.733 32.9778 40.1969C30.9655 29.9122 32.3882 22.0487 36.4404 19.7031C40.6631 17.2584 48.6522 20.0942 57.0344 27.5369C63.3719 33.1639 69.8796 41.6282 75.4638 51.2741C81.1891 61.1638 85.4801 71.1833 87.1493 79.6152C89.2615 90.2858 87.5519 98.4388 83.4096 100.836C79.3905 103.163 72.0354 100.7 64.1927 93.951C57.5665 88.2491 50.4771 79.4389 44.5368 69.178Z" stroke="#00D8FF" stroke-width="8.911"/>
</g>
<defs>
<clipPath id="clip0_95_571">
<rect width="120" height="120" fill="white"/>
</clipPath>
</defs>
</svg>
