<svg width="100%" height="100%" viewBox="0 0 120 120" fill="none" xmlns="http://www.w3.org/2000/svg">
<g clip-path="url(#clip0_95_579)">
<path d="M91.875 0H28.125C12.592 0 0 12.592 0 28.125V91.875C0 107.408 12.592 120 28.125 120H91.875C107.408 120 120 107.408 120 91.875V28.125C120 12.592 107.408 0 91.875 0Z" fill="url(#paint0_linear_95_579)"/>
<path d="M5.3846 60.5056L28.9646 70.0606V76.7492L1.05078 63.8159V59.8916L5.3846 60.5056ZM28.9646 52.6573L5.41873 62.3483L1.05078 62.8264V58.8678L28.9646 45.9688V52.6573Z" fill="white"/>
<path d="M113.142 61.8705L88.8799 52.4182V45.9004L118.022 58.7993V62.7921L113.142 61.8705ZM88.8799 70.1969L113.211 60.5397L118.022 59.823V63.7816L88.8799 76.7149V70.1969Z" fill="white"/>
<path fill-rule="evenodd" clip-rule="evenodd" d="M82.5362 28.6401C82.4012 30.7806 81.437 33.0157 81.7056 35.0964C83.3898 38.0745 87.0967 38.5497 90.1548 38.7539C92.2736 39.1324 92.2469 37.7296 92.1048 36.1536C92.1133 33.6343 92.1217 31.1151 92.1306 28.5958C88.9323 28.6073 85.7331 28.5641 82.5362 28.6401ZM57.317 34.6265C52.1101 35.51 46.8321 37.9981 42.5004 40.9936C39.0138 43.707 45.4934 46.3369 47.8441 46.7765C52.5737 46.8341 56.7686 43.6441 59.8755 40.3326C60.8898 38.9401 62.1569 36.809 60.8823 35.1954C59.9092 34.3515 58.4941 34.5562 57.317 34.6265ZM68.3969 42.1988C64.1158 43.014 60.0423 44.7787 56.4381 47.2355C53.7958 48.0652 51.618 50.9662 54.8922 52.4198C58.3305 55.1597 62.3153 54.4884 65.4817 52.6387C68.3814 50.9152 71.5136 48.7884 72.8551 45.5438C74.1222 41.9894 70.8531 41.8574 68.3969 42.1988ZM80.5417 55.972C79.7444 59.302 76.3909 60.8161 74.6069 63.4547C73.1481 65.3794 73.8236 67.6467 75.4844 69.1617C76.293 70.8384 77.7105 71.7755 79.2306 70.3191C83.1456 67.6575 84.2284 62.4731 84.0658 57.9811C84.355 56.1258 82.2264 57.803 80.5417 55.972ZM65.6434 62.2266C60.4445 63.1162 55.2447 65.6494 50.9111 68.64C47.5469 71.3498 53.883 73.8801 56.253 74.2814C61.0703 74.2884 65.3673 71.1839 68.4133 67.658C69.4726 66.2578 70.7566 63.5386 68.6589 62.4253C67.7209 62.0278 66.632 62.1445 65.6434 62.2266Z" fill="#B956A6"/>
<path fill-rule="evenodd" clip-rule="evenodd" d="M42.5003 40.9946C38.502 42.5944 34.6446 44.537 30.836 46.5712C30.128 49.2033 30.6956 52.4625 30.5121 55.3486C30.4983 67.2155 30.5051 79.0828 30.5028 90.9497C33.4436 90.9497 36.3844 90.9497 39.3252 90.9497C41.1062 89.2725 43.3377 88.0449 45.2724 86.5219C52.7227 81.1786 60.1706 75.8147 67.6111 70.4864C68.1586 70.7325 67.808 67.2656 66.607 69.6736C63.7613 72.3516 59.9841 74.5542 55.9861 74.3391C53.7174 73.5928 50.0602 72.3267 50.0372 69.5466C51.6342 67.6664 47.0906 70.531 45.8477 70.9411C41.8058 72.8817 37.8596 75.0488 33.8096 76.9533C34.7832 75.908 36.6042 74.9335 37.8947 73.8966C47.1164 67.2769 56.3358 60.6314 65.5795 54.0169C67.3575 52.7686 69.075 51.4069 70.9078 50.2402C71.0752 50.8866 71.3892 47.1497 70.0261 49.4503C67.2474 52.2047 63.4992 54.255 59.5463 54.2832C57.323 53.6082 52.5877 51.9942 53.6419 49.1236C54.1561 48.1163 48.8663 51.271 51.2034 49.4921C53.6911 47.6742 56.1985 45.8887 58.7053 44.0898C59.9714 43.9945 59.7019 39.2918 57.9816 42.3253C55.0917 44.8645 51.2949 47.1877 47.3147 46.6371C45.0789 45.9934 42.396 44.7467 41.5835 42.4086C41.3142 41.847 43.0888 40.9722 42.5003 40.9946ZM59.0653 43.8976C58.8436 44.5318 59.467 43.6658 59.0653 43.8976V43.8976Z" fill="#FCCC44"/>
<path fill-rule="evenodd" clip-rule="evenodd" d="M84.3281 37.8513C83.0798 43.8124 81.7153 50.0508 80.542 55.9721C83.9132 60.2208 84.24 53.288 84.8296 51.3277C85.7826 47.2303 86.9114 44.1364 87.0309 39.8942C87.284 38.4467 85.5825 37.5697 84.3281 37.8513ZM88.1957 42.5257C88.0903 43.137 88.3495 42.6406 88.1957 42.5257V42.5257ZM84.2629 55.8919C84.4251 55.5422 84.4251 56.2411 84.2629 55.8919V55.8919Z" fill="#62777F"/>
<path fill-rule="evenodd" clip-rule="evenodd" d="M86.5387 38.5253C87.5905 44.4331 84.1063 51.6094 82.9668 57.1791C85.5543 55.2751 87.5535 46.636 88.0645 43.2545C88.1962 42.8677 88.3584 41.8944 88.3935 41.8595C88.5562 41.0385 90.0716 39.6478 90.1546 38.753C91.0368 38.1303 85.8187 38.03 86.5387 38.5253ZM84.3932 55.891C84.2305 55.5413 84.2305 56.2402 84.3932 55.891V55.891Z" fill="#4E5E67"/>
<path fill-rule="evenodd" clip-rule="evenodd" d="M42.5873 41.0912C41.1287 42.5518 41.676 42.195 42.762 40.9805L42.5873 41.0912ZM58.3656 41.8146C56.6757 44.3539 50.582 46.4772 49.8146 46.6417C53.4803 45.9552 56.897 43.675 59.3012 41.0035C58.9192 41.1737 58.6923 41.5739 58.3656 41.8146ZM41.585 42.6391C42.4959 44.8291 45.8077 46.2844 47.417 46.6238C45.2198 45.9161 42.6336 44.6605 41.585 42.6391ZM58.9337 43.9056C58.4738 44.4485 56.836 45.2608 55.9726 46.0569C54.1206 47.4232 52.2048 48.6926 50.3738 50.0927C51.5396 50.0426 54.9559 47.4907 53.2046 50.0801C54.6887 52.6343 57.9198 54.4104 60.8659 54.2482C64.7565 53.6374 68.3443 51.4863 70.9234 48.4948C67.7926 51.5927 63.6535 54.5084 59.0734 54.1066C56.8567 53.5948 50.7995 50.4659 54.8513 48.2726C56.2801 47.0974 58.7434 46.4818 59.0223 44.4167C58.9637 44.1589 59.4442 43.9072 58.9337 43.9056ZM47.8435 46.7758C49.3178 46.5833 49.3178 46.9685 47.8435 46.7758V46.7758ZM70.8137 50.3032C64.9642 54.3785 59.1995 58.6132 53.4006 62.7616C46.8288 67.4651 40.2851 72.1859 33.7148 76.8855C36.1851 76.0526 38.6602 74.426 41.1143 73.3024C44.4935 71.5146 48.0573 70.1023 51.2195 67.9305C57.4717 64.2499 64.0838 60.7432 68.8927 55.1121C69.9423 53.8812 70.9946 51.8998 71.0415 50.5671C70.8901 50.6098 71.0049 50.0341 70.8137 50.3032ZM50.9106 68.6393C49.8582 69.8285 49.4307 70.6784 50.5229 69.1662C50.5037 69.3415 51.4093 68.2273 50.9106 68.6393ZM66.9212 69.2084C64.149 72.1315 60.0488 74.2399 56.2018 74.382C60.6493 74.4143 64.6618 71.7743 67.6749 68.6599C67.4771 68.4209 67.0763 69.2168 66.9212 69.2084ZM67.7682 70.1271C58.4546 76.9071 48.8195 83.9398 39.4744 90.6954C40.9468 91.1571 44.152 91.3737 45.6147 89.4888C48.7276 87.341 52.2268 85.7618 55.3496 83.5849C59.8717 80.6505 64.7134 77.4434 67.2817 72.5116C67.404 71.8502 68.3129 70.6605 67.7682 70.1271ZM50.0434 70.5574C50.4756 72.3818 55.8784 74.4757 55.2924 74.0749C53.3003 73.3765 51.324 72.288 50.0434 70.5574Z" fill="#DC9624"/>
</g>
<defs>
<linearGradient id="paint0_linear_95_579" x1="0" y1="120" x2="120" y2="0" gradientUnits="userSpaceOnUse">
<stop stop-color="#DB7093"/>
<stop offset="1" stop-color="#F3B661"/>
</linearGradient>
<clipPath id="clip0_95_579">
<rect width="120" height="120" fill="white"/>
</clipPath>
</defs>
</svg>
