<svg width="100%" height="100%" viewBox="0 0 120 120" fill="none" xmlns="http://www.w3.org/2000/svg">
<g clip-path="url(#clip0_95_599)">
<path d="M91.875 0H28.125C12.592 0 0 12.592 0 28.125V91.875C0 107.408 12.592 120 28.125 120H91.875C107.408 120 120 107.408 120 91.875V28.125C120 12.592 107.408 0 91.875 0Z" fill="#242938"/>
<path fill-rule="evenodd" clip-rule="evenodd" d="M38.9062 51.5625C41.7183 40.3129 48.7505 34.6875 60 34.6875C76.875 34.6875 78.9844 47.3438 87.4219 49.4531C93.0473 50.8598 97.9688 48.7505 102.188 43.125C99.3755 54.3745 92.3433 60 81.0938 60C64.2188 60 62.1094 47.3438 53.6719 45.2344C48.0464 43.8277 43.125 45.9371 38.9062 51.5625ZM17.8125 76.875C20.6246 65.6255 27.6567 60 38.9062 60C55.7812 60 57.8906 72.6562 66.3281 74.7656C71.9536 76.1723 76.875 74.063 81.0938 68.4375C78.2817 79.687 71.2495 85.3125 60 85.3125C43.125 85.3125 41.0156 72.6562 32.5781 70.5469C26.9527 69.1402 22.0312 71.2495 17.8125 76.875Z" fill="url(#paint0_linear_95_599)"/>
</g>
<defs>
<linearGradient id="paint0_linear_95_599" x1="40.5469" y1="34.6875" x2="76.6406" y2="86.9531" gradientUnits="userSpaceOnUse">
<stop stop-color="#32B1C1"/>
<stop offset="1" stop-color="#14C6B7"/>
</linearGradient>
<clipPath id="clip0_95_599">
<rect width="120" height="120" fill="white"/>
</clipPath>
</defs>
</svg>
