<svg width="100%" height="100%" viewBox="0 0 120 120" fill="none" xmlns="http://www.w3.org/2000/svg">
<g clip-path="url(#clip0_95_560)">
<path d="M91.875 0H28.125C12.592 0 0 12.592 0 28.125V91.875C0 107.408 12.592 120 28.125 120H91.875C107.408 120 120 107.408 120 91.875V28.125C120 12.592 107.408 0 91.875 0Z" fill="#007ACC"/>
<path d="M26.5362 60.3987L26.498 65.313H34.3076H42.1171V87.5037V109.694H47.6411H53.1648V87.5037V65.313H60.9742H68.7836V60.4938C68.7836 57.8271 68.7268 55.5987 68.6504 55.5415C68.5933 55.4655 59.0884 55.4271 47.5647 55.4463L26.5933 55.5035L26.5362 60.3987Z" fill="white"/>
<path d="M96.8284 55.363C99.8758 56.1252 102.2 57.4775 104.333 59.6868C105.438 60.868 107.076 63.0205 107.209 63.5347C107.247 63.6871 102.028 67.1919 98.8666 69.1536C98.7522 69.23 98.2947 68.7346 97.7805 67.9729C96.2378 65.7252 94.6188 64.7535 92.1424 64.5824C88.5044 64.3344 86.1616 66.2394 86.1808 69.4204C86.1808 70.3536 86.3139 70.9058 86.695 71.668C87.4947 73.325 88.9806 74.3155 93.6475 76.3344C102.238 80.03 105.914 82.468 108.2 85.9344C110.752 89.8011 111.324 95.9727 109.59 100.563C107.686 105.553 102.962 108.944 96.3138 110.068C94.2569 110.43 89.3805 110.373 87.1713 109.973C82.352 109.116 77.7808 106.735 74.9617 103.611C73.8569 102.392 71.7044 99.2108 71.838 98.9821C71.8947 98.9061 72.3902 98.6014 72.9423 98.2775C73.4758 97.9728 75.4952 96.8108 77.3997 95.706L80.8473 93.7058L81.5711 94.7727C82.5808 96.3154 84.79 98.4299 86.1236 99.1344C89.9519 101.154 95.2094 100.868 97.7997 98.5443C98.9045 97.5346 99.3616 96.4869 99.3616 94.9443C99.3616 93.5535 99.19 92.9441 98.4663 91.8964C97.533 90.5633 95.6284 89.4393 90.2186 87.0964C84.0283 84.4297 81.3616 82.7727 78.9236 80.1439C77.5141 78.6205 76.1805 76.1821 75.6283 74.1439C75.1713 72.4489 75.0569 68.2011 75.4188 66.4869C76.6947 60.5061 81.2092 56.3347 87.7234 55.0963C89.838 54.6964 94.7519 54.8488 96.8284 55.363Z" fill="white"/>
</g>
<defs>
<clipPath id="clip0_95_560">
<rect width="120" height="120" fill="white"/>
</clipPath>
</defs>
</svg>
